PathFileType	4	(X/Y/Z)	C:\Users\Basilio\Documents\Thesis Gigler\squatting_fais\c3dfiles\073\SJ_pre5\markers_experimental.trc
DataRate	CameraRate	NumFrames	NumMarkers	Units	OrigDataRate	OrigDataStartFrame	OrigNumFrames
200.000000	200.000000	4	61	mm	200.000000	0	1360
Frame#	Time	FHD			LBHD			RBHD			C7			T10			CLAV			LSHO			LUUPA			LMUPA			LDUPA			LLEP			LMEP			LRAD			LUL			LRFIN			RSHO			RUPA1			RMUPA			RDUPA			RLEP			RMEP			RRAD			RUL			RUFIN			LASI			RASI			USACR			LSACR			RSACR			LTHI1			LTHI2			LTHI3			LTHI4			LLFC			LMFC			LTIB1			LTIB2			LTIB3			LTIB4			LLMAL			LMMAL			LHEE			LMT1			LMT2			LMT5			RTHI			RTHI2			RTHI3			RTHI4			RLFC			RMFC			RTIB1			RTIB2			RTIB3			RTIB4			RLMAL			RMMAL			RHEE			RMT1			RMT2			RMT5			
		X1	Y1	Z1	X2	Y2	Z2	X3	Y3	Z3	X4	Y4	Z4	X5	Y5	Z5	X6	Y6	Z6	X7	Y7	Z7	X8	Y8	Z8	X9	Y9	Z9	X10	Y10	Z10	X11	Y11	Z11	X12	Y12	Z12	X13	Y13	Z13	X14	Y14	Z14	X15	Y15	Z15	X16	Y16	Z16	X17	Y17	Z17	X18	Y18	Z18	X19	Y19	Z19	X20	Y20	Z20	X21	Y21	Z21	X22	Y22	Z22	X23	Y23	Z23	X24	Y24	Z24	X25	Y25	Z25	X26	Y26	Z26	X27	Y27	Z27	X28	Y28	Z28	X29	Y29	Z29	X30	Y30	Z30	X31	Y31	Z31	X32	Y32	Z32	X33	Y33	Z33	X34	Y34	Z34	X35	Y35	Z35	X36	Y36	Z36	X37	Y37	Z37	X38	Y38	Z38	X39	Y39	Z39	X40	Y40	Z40	X41	Y41	Z41	X42	Y42	Z42	X43	Y43	Z43	X44	Y44	Z44	X45	Y45	Z45	X46	Y46	Z46	X47	Y47	Z47	X48	Y48	Z48	X49	Y49	Z49	X50	Y50	Z50	X51	Y51	Z51	X52	Y52	Z52	X53	Y53	Z53	X54	Y54	Z54	X55	Y55	Z55	X56	Y56	Z56	X57	Y57	Z57	X58	Y58	Z58	X59	Y59	Z59	X60	Y60	Z60	X61	Y61	Z61	

1	0	-193.1187133789063	1667.7314453125	-918.0648193359377	-328.5852050781251	1634.92724609375	-928.0718383789065	-337.0971069335938	1613.81591796875	-793.871520996094	-377.0783081054688	1525.812866210938	-860.393005371094	-453.4785766601564	1189.886596679688	-875.6895751953127	-264.7484741210938	1426.2900390625	-870.7258911132815	-297.3914794921876	1464.50537109375	-1040.627563476563	-388.4918823242189	1381.834350585938	-1156.002075195313	-371.5986633300782	1334.540649414063	-1161.31494140625	-422.4954223632814	1335.13623046875	-1196.789672851563	-462.5659790039064	1251.667358398438	-1245.361328125	-531.1517333984376	1237.003540039063	-1198.45947265625	-382.1386413574219	1041.064086914063	-1105.264770507813	-349.8105468750001	1022.254577636719	-1169.26904296875	-340.0064697265626	1031.041381835938	-1062.584228515625	-266.7294921875001	1442.782958984375	-699.6480102539064	-353.9332580566407	1359.70849609375	-557.5401000976564	-342.2997131347657	1311.234619140625	-555.0233154296876	-388.9912719726564	1315.346313476563	-516.9768066406251	-416.6701660156251	1236.130981445313	-475.6850585937501	-494.1752319335939	1230.90966796875	-528.1446533203126	-403.7079162597657	1023.965270996094	-637.7944946289064	-360.8705749511719	996.1594238281252	-582.3708496093751	-342.7644958496094	1017.303344726563	-681.1506347656251	-292.6603393554688	1025.868041992188	-1012.333251953125	-289.0037841796876	1008.27783203125	-759.4873046875001	-471.0988159179689	1085.81103515625	-873.3218994140627	-482.3005371093751	1057.813598632813	-901.875915527344	-476.1439819335939	1054.531860351563	-846.7862548828127	-355.7138366699219	723.4290161132814	-1115.29736328125	-322.8240661621094	645.0233764648439	-1113.4169921875	-281.5153808593751	642.8717651367189	-1086.006713867188	-353.6169738769532	594.4168701171876	-1113.128173828125	-352.6594848632813	537.3401489257814	-1127.373657226563	-351.1138610839844	502.7601623535157	-993.6242675781252	-313.8096618652344	330.2859497070313	-1118.363647460938	-375.0071105957032	303.8808288574219	-1176.220947265625	-334.7947082519532	291.1732788085938	-1157.172485351563	-339.1697082519532	208.106185913086	-1140.114624023438	-405.1440734863282	93.76470184326173	-1188.672729492188	-397.0243530273439	108.8647003173828	-1100.101318359375	-463.8605957031251	52.55808258056642	-1152.416748046875	-240.3201599121094	64.60182189941408	-1109.314819335938	-237.4700469970704	69.67119598388673	-1147.10107421875	-270.2801513671876	45.80770874023438	-1202.228149414063	-397.5778198242189	795.6044921875002	-669.1505737304689	-368.0678405761719	736.1937866210939	-661.9481811523439	-334.7652893066407	734.1339111328126	-667.5695800781251	-404.4426879882814	660.9732666015626	-676.9462280273439	-394.7557067871095	510.6228027343751	-676.6798706054689	-392.6109619140626	484.5523681640626	-804.8982543945315	-350.5632934570313	340.4612121582032	-747.0814208984376	-371.4561767578126	265.5654296875001	-670.3180541992189	-349.3861999511719	260.0354919433594	-713.6314086914064	-364.0079345703126	211.7578277587891	-740.1929321289064	-412.5372314453126	85.62312316894533	-675.4086303710939	-401.0363159179689	100.0600051879883	-763.3453369140626	-476.3323364257814	43.31786346435548	-728.1585083007814	-246.3186492919922	55.48160552978517	-720.9314575195314	-249.8928985595704	54.26073837280275	-680.3115844726564	-293.5301513671876	33.31134033203126	-634.1660156250001	
2	0.005	-193.0271301269532	1667.693603515625	-918.0638427734377	-328.5523376464844	1634.97998046875	-928.2667236328127	-337.1577148437501	1613.785888671875	-794.0539550781252	-377.2277221679688	1525.749145507813	-860.641540527344	-453.4747619628907	1189.837280273438	-876.0620727539065	-264.8319396972657	1426.263305664063	-871.0278930664065	-297.6276245117188	1464.54248046875	-1040.941528320313	-388.9121398925782	1381.840209960938	-1156.1806640625	-371.8963623046876	1334.6005859375	-1161.539184570313	-422.8658142089845	1335.095825195313	-1196.9609375	-462.8640441894532	1251.61572265625	-1245.526245117188	-531.4011840820314	1236.949584960938	-1198.52392578125	-382.0643005371094	1041.05078125	-1105.537719726563	-349.8725280761719	1022.245544433594	-1169.55908203125	-340.0447998046876	1031.09521484375	-1062.889038085938	-266.8121643066407	1442.718505859375	-699.9700927734376	-353.7228393554688	1359.53369140625	-557.8673095703126	-342.0730285644532	1311.09228515625	-555.2830200195314	-388.7723083496095	1315.1826171875	-517.1827392578126	-416.3745117187501	1235.938354492188	-475.8880920410157	-493.9366455078126	1230.720825195313	-528.2908935546876	-403.4652404785157	1023.84375	-638.1377563476564	-360.6263122558594	995.9993286132815	-582.7506713867189	-342.6339111328126	1017.202697753906	-681.4766845703126	-292.5345764160157	1025.837524414063	-1012.652038574219	-289.1234130859376	1008.276550292969	-760.2153930664064	-471.0070190429689	1085.738403320313	-873.684509277344	-482.2419738769532	1057.784301757813	-902.2872314453127	-475.9304504394532	1054.593383789063	-847.301696777344	-356.2508544921876	723.2750244140626	-1115.58740234375	-323.5687255859376	644.8289794921876	-1113.763916015625	-282.1791381835938	642.5405273437501	-1086.240356445313	-354.3872985839844	594.2322387695314	-1113.28955078125	-353.8456726074219	537.3080444335939	-1127.61669921875	-352.2485961914063	502.6212158203126	-993.811706542969	-314.0454711914063	330.2557678222657	-1118.488525390625	-375.2938232421876	303.6529846191407	-1176.355834960938	-334.9678649902344	291.0296936035157	-1157.255981445313	-339.0695190429688	207.9965515136719	-1140.141235351563	-404.759490966797	93.39383697509767	-1188.627319335938	-396.6196289062501	108.5465240478516	-1100.009033203125	-463.2059631347657	51.86405563354494	-1152.35595703125	-239.8126678466797	65.00635528564455	-1109.27587890625	-236.9107513427735	70.03755187988283	-1147.055419921875	-269.4781494140626	45.84421539306641	-1202.128540039063	-397.7307739257814	795.6048583984377	-669.4914550781251	-368.1845703125001	736.1846923828126	-662.2325439453126	-334.8804321289063	734.1055908203126	-667.7888183593751	-404.5603942871095	660.9693603515626	-677.1765136718751	-394.9169006347657	510.6512451171876	-676.9249267578126	-392.6035766601564	484.5235900878907	-805.0679931640627	-350.6417846679688	340.4931335449219	-747.1909790039064	-371.7542114257813	265.5239868164063	-670.5135498046876	-349.5233459472657	260.0003356933594	-713.7474365234376	-364.0469055175782	211.7256164550782	-740.3069458007814	-412.5462646484376	85.64143371582033	-675.4724731445314	-401.024871826172	100.0761489868164	-763.3536987304689	-476.3310852050782	43.30003356933594	-728.1914672851564	-246.2920684814454	55.46846389770509	-720.9381103515626	-249.8836822509766	54.26404190063478	-680.3109130859376	-293.4967651367188	33.30657958984376	-634.1866455078126	
3	0.01	-193.0484466552735	1667.547119140625	-918.1536254882815	-328.5990905761719	1635.0634765625	-928.4593505859377	-337.2930297851563	1613.705322265625	-794.3547363281252	-377.3383483886719	1525.6640625	-860.9772949218752	-453.4174804687501	1189.73388671875	-876.5408325195315	-264.8935546875001	1426.259521484375	-871.473083496094	-297.7746276855469	1464.533935546875	-1041.35595703125	-389.1991577148439	1381.813110351563	-1156.409301757813	-372.1835327148438	1334.609130859375	-1161.923217773438	-423.2352294921876	1335.06201171875	-1197.1728515625	-463.2677307128907	1251.551635742188	-1245.73193359375	-531.6719360351564	1236.79345703125	-1198.588134765625	-381.9341430664063	1040.988891601563	-1105.879516601563	-349.9286499023438	1022.225646972656	-1169.965576171875	-339.9536132812501	1031.002807617188	-1063.219604492188	-266.8092041015626	1442.635620117188	-700.3520507812501	-353.5787353515626	1359.393188476563	-558.1882934570314	-341.8749084472657	1310.9658203125	-555.6084594726564	-388.5229492187501	1315.031005859375	-517.4489746093751	-416.091766357422	1235.739990234375	-476.1613769531251	-493.6417236328126	1230.508911132813	-528.4788208007814	-403.2828369140626	1023.745056152344	-638.5428466796876	-360.3912658691407	995.8314208984377	-583.1734619140626	-342.4886474609376	1017.122192382813	-681.8538818359376	-292.4399414062501	1025.8369140625	-1012.988159179688	-289.0773620605469	1008.252502441406	-760.7138061523439	-470.9628906250001	1085.676879882813	-874.0759887695315	-484.4589233398439	1058.299560546875	-902.237243652344	-487.432098388672	1055.189575195313	-846.6567993164065	-356.8161315917969	723.2045288085939	-1115.849853515625	-324.2571105957032	644.6503295898439	-1114.016357421875	-282.7959594726563	642.2446899414064	-1086.491088867188	-355.3250732421876	594.0809326171876	-1113.488891601563	-354.8329467773438	537.1311035156251	-1127.734619140625	-353.4755859375001	502.4837951660157	-993.9431762695315	-314.3401489257813	330.2013244628907	-1118.480346679688	-375.5213317871094	303.3328247070313	-1176.366455078125	-335.1488952636719	290.8507385253907	-1157.29150390625	-339.0279235839844	207.8285369873047	-1140.09521484375	-404.3324279785157	93.05550384521486	-1188.484252929688	-396.2403259277345	108.1945266723633	-1099.921752929688	-462.661102294922	51.21239089965822	-1152.130859375	-239.3069152832032	65.31953430175783	-1109.357788085938	-236.4712982177735	70.31845855712892	-1147.124267578125	-268.9149169921876	45.8763542175293	-1202.088745117188	-397.8215942382814	795.5902099609377	-669.8560791015626	-368.2834167480469	736.1881713867189	-662.5220947265626	-334.9461059570313	734.1151733398439	-668.0372314453126	-404.6558532714845	660.9629516601564	-677.4822387695314	-394.9896545410157	510.6810607910157	-677.1551513671876	-392.6712341308595	484.5105895996095	-805.2554931640627	-350.6651306152344	340.4795837402344	-747.3323364257814	-371.8089599609376	265.5728454589844	-670.6278686523439	-349.5973205566407	259.9975280761719	-713.9214477539064	-364.0909118652344	211.7661285400391	-740.3873291015626	-412.5450439453126	85.65659332275392	-675.4922485351564	-401.0344848632814	100.021713256836	-763.3996582031251	-476.3008117675782	43.29155731201173	-728.2244262695314	-246.2614288330079	55.46801376342775	-720.9287719726564	-249.8574981689454	54.27397918701173	-680.3188476562501	-293.5368041992188	33.34384536743165	-634.1626586914064	
4	0.015	-193.0330200195313	1667.494873046875	-918.3203125000002	-328.6175537109376	1635.09765625	-928.7316894531252	-337.4191589355469	1613.62158203125	-794.522644042969	-377.4594726562501	1525.569213867188	-861.328796386719	-453.3523864746095	1189.590576171875	-877.1565551757815	-265.0007629394532	1426.228759765625	-871.8852539062502	-297.9859924316407	1464.63916015625	-1041.772705078125	-389.5891418457032	1381.75244140625	-1156.682495117188	-372.6466064453126	1334.576293945313	-1162.3935546875	-423.5821838378907	1335.007080078125	-1197.455810546875	-463.6398315429689	1251.383178710938	-1245.991088867188	-531.8873901367189	1236.616088867188	-1198.769409179688	-381.8313598632813	1040.9326171875	-1106.229248046875	-349.9458312988282	1022.191711425781	-1170.4091796875	-339.9019775390626	1030.904296875	-1063.702514648438	-266.8588256835938	1442.549560546875	-700.7653808593751	-353.4470825195313	1359.271606445313	-558.5945434570314	-341.7122192382813	1310.833129882813	-556.0416259765626	-388.354217529297	1314.84716796875	-517.7832641601564	-415.8648376464845	1235.543334960938	-476.4998474121095	-493.4934082031251	1230.339111328125	-528.7138061523439	-403.197723388672	1023.608154296875	-638.9165039062501	-360.1976318359376	995.7103271484377	-583.5987548828126	-342.3680114746094	1017.061645507813	-682.3256835937501	-292.3879699707032	1025.703735351563	-1013.438232421875	-289.0173645019532	1008.219299316406	-761.2377319335939	-470.9185180664064	1085.584594726563	-874.602722167969	-484.2913513183595	1058.160888671875	-902.7620849609377	-487.3425292968751	1055.149536132813	-847.190368652344	-357.2300109863282	722.9025268554689	-1116.14501953125	-324.9608459472657	644.4230957031251	-1114.234130859375	-283.3788452148438	641.9224853515626	-1086.795043945313	-356.1092529296876	593.8324584960939	-1113.738525390625	-355.6995849609376	536.9202270507814	-1127.868041992188	-354.5136108398438	502.3689880371095	-994.0540161132815	-314.6014404296876	330.0749206542969	-1118.5732421875	-375.7595214843751	303.0047607421876	-1176.374877929688	-335.3081970214844	290.6286621093751	-1157.387939453125	-338.9717407226563	207.6706085205079	-1140.070922851563	-404.0169372558595	92.62498474121095	-1188.36474609375	-395.8112792968751	107.8394851684571	-1099.787475585938	-462.0725402832032	50.55012512207033	-1151.846069335938	-238.7759704589844	65.53572082519533	-1109.52197265625	-235.9993438720704	70.46802520751955	-1147.239624023438	-268.4490051269532	45.89609909057618	-1202.14013671875	-397.9226684570314	795.5606689453127	-670.2567749023439	-368.4438781738282	736.1545410156251	-662.9226684570314	-335.0279235839844	734.0988769531251	-668.3386230468751	-404.7281799316407	660.9673461914064	-677.8506469726564	-395.083709716797	510.709197998047	-677.4193725585939	-392.6729125976564	484.4424133300782	-805.5566406250002	-350.6892089843751	340.4780883789063	-747.4693603515626	-371.8328247070313	265.6167907714844	-670.7965087890626	-349.6142578125001	260.0031127929688	-713.9684448242189	-364.0854492187501	211.7489776611329	-740.4846191406251	-412.5371398925782	85.66540527343751	-675.4951782226564	-400.9820861816407	99.97562408447268	-763.4246826171876	-476.3038635253907	43.32003402709962	-728.2283325195314	-246.2733764648438	55.46351242065431	-720.9492797851564	-249.8797912597657	54.28504943847658	-680.3040771484376	-293.5404357910157	33.31928634643555	-634.1947631835939	
